IKResults
version=1
nRows=6
nColumns=38
inDegrees=yes

Units are S.I. units (second, meters, Newtons, ...)
If the header above contains a line with 'inDegrees', this indicates whether rotational values are in degrees (yes) or radians (no).

endheader
time	sternoclavicular_r2	sternoclavicular_r3	unrotscap_r3	unrotscap_r2	acromioclavicular_r2	acromioclavicular_r3	acromioclavicular_r1	unrothum_r1	unrothum_r3	unrothum_r2	elv_angle	shoulder_elv	shoulder1_r2	shoulder_rot	elbow_flexion	pro_sup	deviation	flexion	proximal_distal_r1	proximal_distal_r3	cmc_flexion	cmc_abduction	mp_flexion	ip_flexion	2mcp_flexion	2mcp_abduction	2pm_flexion	2md_flexion	APLpt_tx	APLpt_ty	APLpt_tz	FPLpt_tx	FPLpt_ty	FPLpt_tz	FPLpt2_tx	FPLpt2_ty	FPLpt2_tz
      0.00000000	     -5.87786079	      2.48958441	     -2.48958441	      5.87786079	     -1.19014725	      9.61835139	      4.32338276	     -4.32338276	     -9.61835139	      1.19014725	     15.28920718	     24.28862652	    -15.28920718	      2.18696219	     81.97266627	     52.85942875	      0.17674323	      0.19281603	     12.27835394	      5.52377239	      3.36700001	      6.67261114	    -27.65299999	    -34.18399999	     -3.41039701	      7.65299997	     26.93900001	     34.89800000	     -0.00022841	     -0.00009136	     -0.00045682	     -0.00029237	     -0.00087710	     -0.00049337	      0.00004241	     -0.00007788	     -0.00009345
      0.01000000	     -5.88040065	      2.49066018	     -2.49066018	      5.88040065	     -1.19066151	      9.62250754	      4.32525092	     -4.32525092	     -9.62250754	      1.19066151	     15.29993468	     24.29912178	    -15.29993468	      2.20920095	     81.98756159	     52.85092645	      0.17669626	      0.19300508	     12.27542737	      5.52918818	      3.36700001	      6.67307822	    -27.65299999	    -34.18399999	     -3.41366053	      7.65299997	     26.93900001	     34.89800000	     -0.00022867	     -0.00009147	     -0.00045733	     -0.00029269	     -0.00087808	     -0.00049392	      0.00004241	     -0.00007788	     -0.00009345
      0.02000000	     -5.88015512	      2.49055618	     -2.49055618	      5.88015512	     -1.19061180	      9.62210576	      4.32507032	     -4.32507032	     -9.62210576	      1.19061180	     15.34362862	     24.29810719	    -15.34362862	      2.15517914	     81.96479691	     52.82700313	      0.17113729	      0.19573180	     11.93389818	      5.60730301	      3.36700001	      6.46275767	    -27.65299999	    -34.18399999	     -3.05453721	      7.65299997	     26.93900001	     34.89800000	     -0.00023233	     -0.00009293	     -0.00046466	     -0.00029738	     -0.00089215	     -0.00050184	      0.00004241	     -0.00007788	     -0.00009345
      0.03000000	     -5.86906703	      2.48585979	     -2.48585979	      5.86906703	     -1.18836669	      9.60396155	      4.31691462	     -4.31691462	     -9.60396155	      1.18836669	     15.23798175	     24.25228874	    -15.23798175	      2.03317886	     82.01955628	     52.79575794	      0.17168067	      0.19553299	     11.96736926	      5.60160764	      3.36700001	      6.49219057	    -27.65299999	    -34.18399999	     -3.11454107	      7.65299997	     26.93900001	     34.89800000	     -0.00023208	     -0.00009283	     -0.00046415	     -0.00029706	     -0.00089117	     -0.00050128	      0.00004241	     -0.00007788	     -0.00009345
      0.04000000	     -5.87364586	      2.48779917	     -2.48779917	      5.87364586	     -1.18929381	      9.61145422	      4.32028252	     -4.32028252	     -9.61145422	      1.18929381	     15.23914767	     24.27120950	    -15.23914767	      2.07850905	     81.97784038	     52.83046979	      0.16983350	      0.19110315	     11.85334230	      5.47470202	      3.36700001	      6.52732572	    -27.65299999	    -34.18399999	     -2.91938974	      7.65299997	     26.93900001	     34.89800000	     -0.00022611	     -0.00009044	     -0.00045222	     -0.00028942	     -0.00086826	     -0.00048840	      0.00004241	     -0.00007788	     -0.00009345
      0.05000000	     -5.87367628	      2.48781205	     -2.48781205	      5.87367628	     -1.18929997	      9.61150398	      4.32030489	     -4.32030489	     -9.61150398	      1.18929997	     15.23746327	     24.27133517	    -15.23746327	      2.09870601	     81.97857636	     52.82133354	      0.16987027	      0.19129582	     11.85559086	      5.48022167	      3.36700001	      6.53052126	    -27.65299999	    -34.18399999	     -2.92131585	      7.65299997	     26.93900001	     34.89800000	     -0.00022637	     -0.00009055	     -0.00045274	     -0.00028975	     -0.00086925	     -0.00048895	      0.00004241	     -0.00007788	     -0.00009345
